# xmcd
#
# Track frame offsets: 
#        150
#        15497
#        29802
#        43477
#        58077
#        73907
#        86412
#        100370
#        116920
#        136922
#        149610
#        159865
#        174497
#        188662
#        200812
#        212830
#        228172
#        247222
#        258702
#        273015
#        287055
#        300677
#        313022
#        328900
#
# Disc length: 4577 seconds
#
# Revision: 0
# Processed by: cddbd v1.4PL0 Copyright (c) Steve Scherf et al.
# Submitted via: ExactAudioCopy v0.90b4
#
DISCID=7a11df18
DTITLE=Os Monarcas - Dose Dupla: Os Monarcas e Cheiro de Galpão
DYEAR=1995
DGENRE=Country
TTITLE0=Cheiro De Galpão
TTITLE1=Xote A Saudade
TTITLE2=Vida Buenacha
TTITLE3=Embretados
TTITLE4=Réplica
TTITLE5=Queimando Campo
TTITLE6=Gineteando O Temporal
TTITLE7=Santuário De Chucros
TTITLE8=Erechim, História E Canto
TTITLE9=Fim De Tarde
TTITLE10=Dia De Esperaça
TTITLE11=Parece Mas Não É
TTITLE12=Fandango Das Três Fronteiras
TTITLE13=Posteiro
TTITLE14=Cova De Touro
TTITLE15=Quando A Saudade Partir
TTITLE16=Cavalo Raio
TTITLE17=Vanera De Galpão
TTITLE18=Clarinadas De Esperança
TTITLE19=Não Encosta A Barriguinha
TTITLE20=Rancho À Beira Mato
TTITLE21=Aquerenciado
TTITLE22=Desenho Da Miséria
TTITLE23=De Lida E Romance
EXTD=
EXTT0=
EXTT1=
EXTT2=
EXTT3=
EXTT4=
EXTT5=
EXTT6=
EXTT7=
EXTT8=
EXTT9=
EXTT10=
EXTT11=
EXTT12=
EXTT13=
EXTT14=
EXTT15=
EXTT16=
EXTT17=
EXTT18=
EXTT19=
EXTT20=
EXTT21=
EXTT22=
EXTT23=
PLAYORDER=
